<svg viewBox="0 0 64 22" xmlns="http://www.w3.org/2000/svg">
  <path d="M30.6075 7.09518C29.6313 6.63508 28.5671 6.3964 27.4898 6.39591C25.468 6.42135 23.5386 7.25482 22.1246 8.71363C20.7106 10.1724 19.9273 12.1376 19.9465 14.1783C19.9181 15.195 20.092 16.207 20.4579 17.1547C20.8238 18.1023 21.3742 18.9663 22.0766 19.6955C22.7791 20.4248 23.6192 21.0044 24.5475 21.4002C25.4757 21.7961 26.4732 22 27.4808 22C28.4885 22 29.4859 21.7961 30.4142 21.4002C31.3424 21.0044 32.1826 20.4248 32.885 19.6955C33.5875 18.9663 34.1379 18.1023 34.5038 17.1547C34.8697 16.207 35.0436 15.195 35.0152 14.1783V0H30.6075V7.09518ZM27.4898 17.3431C26.8659 17.3502 26.2539 17.1704 25.7313 16.8263C25.2087 16.4823 24.799 15.9895 24.5539 15.4104C24.3089 14.8312 24.2396 14.1917 24.3548 13.5727C24.47 12.9538 24.7645 12.3833 25.2011 11.9334C25.6377 11.4834 26.1967 11.1743 26.8074 11.0452C27.418 10.916 28.0529 10.9726 28.6317 11.2078C29.2106 11.443 29.7072 11.8462 30.0589 12.3664C30.4106 12.8866 30.6015 13.5003 30.6075 14.1301C30.6138 14.9668 30.291 15.7719 29.7098 16.3686C29.1287 16.9654 28.3367 17.305 27.5077 17.313L27.4898 17.3431ZM59.4002 6.79359V14.0756C59.4186 14.4985 59.3519 14.9206 59.2043 15.3168C59.0566 15.7129 58.8311 16.0747 58.5411 16.3805C58.2512 16.6862 57.9029 16.9296 57.5173 17.0958C57.1317 17.262 56.7167 17.3477 56.2974 17.3477C55.8781 17.3477 55.4631 17.262 55.0775 17.0958C54.6919 16.9296 54.3437 16.6862 54.0537 16.3805C53.7638 16.0747 53.5382 15.7129 53.3906 15.3168C53.2429 14.9206 53.1763 14.4985 53.1947 14.0756V6.79359H48.7571V14.0274C48.7755 14.4502 48.7088 14.8724 48.5612 15.2685C48.4136 15.6647 48.188 16.0265 47.8981 16.3322C47.6081 16.638 47.2599 16.8813 46.8743 17.0476C46.4886 17.2138 46.0737 17.2995 45.6544 17.2995C45.235 17.2995 44.8201 17.2138 44.4345 17.0476C44.0489 16.8813 43.7006 16.638 43.4107 16.3322C43.1207 16.0265 42.8951 15.6647 42.7475 15.2685C42.5999 14.8724 42.5332 14.4502 42.5516 14.0274V6.79359H38.12V13.9973C38.1024 16.0359 38.8856 17.9986 40.2981 19.4559C41.7107 20.9133 43.6376 21.7466 45.6573 21.7736C46.6483 21.7737 47.6294 21.5744 48.5431 21.1873C49.4568 20.8002 50.2849 20.2331 50.9789 19.5191C51.6652 20.2442 52.4889 20.8227 53.4009 21.2203C54.313 21.618 55.295 21.8266 56.2885 21.8339C57.2861 21.826 58.2725 21.6199 59.1912 21.2272C60.11 20.8346 60.9431 20.2631 61.643 19.5455C62.3429 18.8279 62.8959 17.9781 63.2705 17.0448C63.645 16.1114 63.8337 15.1127 63.8258 14.1058V6.79359H59.4002ZM0 6.39622H9.30522C10.3049 6.40017 11.294 6.60321 12.2158 6.99372C13.1376 7.38423 13.9739 7.95452 14.6769 8.6719C15.3799 9.38929 15.9357 10.2397 16.3125 11.1743C16.6892 12.1089 16.8795 13.1094 16.8724 14.1183V21.3522H12.4109V14.1183C12.4293 13.6955 12.3627 13.2733 12.2151 12.8772C12.0674 12.4811 11.8418 12.1193 11.5519 11.8135C11.262 11.5077 10.9137 11.2644 10.5281 11.0982C10.1425 10.9319 9.72752 10.8462 9.30821 10.8462C8.8889 10.8462 8.47392 10.9319 8.08831 11.0982C7.7027 11.2644 7.35443 11.5077 7.06451 11.8135C6.77458 12.1193 6.549 12.4811 6.40136 12.8772C6.25372 13.2733 6.18709 13.6955 6.20547 14.1183V21.3522H1.76787V14.1907C1.76818 13.0606 2.01064 11.944 2.47861 10.9174H0V6.39622Z" fill="white"/>
</svg>
